<svg width="726" height="106" viewBox="0 0 726 106" version="1.1" xmlns="http://www.w3.org/2000/svg"><title>El Heraldo de México</title><desc>Prowell Media.</desc><g id="Page-1" stroke="none" stroke-width="1" fill="none" fill-rule="evenodd"><g id="Group" fill="#FFF"><path d="M165.272 87.066c4.6.028 8.09 3.131 8.09 8.839 0 4.628-2.41 7.676-5.375 7.703-1.163 0-2.161-.359-2.715-.886V87.066zm-6.844 17.568l7.814.027c8.285.028 12.303-4.516 12.303-9.587 0-5.293-4.295-8.783-10.835-8.866l-9.282.027v.97l2.133.526v15.406l-2.133.499v.998zm60.516-8.839l.887 2.881h.97v-7.204h-.942l-.915 3.048h-2.91v-7.205h5.82l1.856 4.406h.943v-5.513l-2.411.027h-13.107v.97l2.134.554v15.378l-2.134.527v.97h15.13l1.136-6.401h-.97l-3.076 5.32h-3.38c-.86-.028-1.47-.277-1.94-.803v-6.955h2.909zm71.184 8.839h6.706v-.998l-3.048-.582.61-13.91 5.209 11.915 1.164 2.965h.637l1.192-3.02 4.849-12.165.582 14.298-2.19.527v.97h9.117v-.97l-2.134-.527-.776-15.434 2.106-.498v-.97h-6.982l-.222.886-4.073 10.114-4.711-11h-7.232v.97l2.272.554-.886 15.378-2.19.527v.97zm65.06-8.839l.888 2.881h.97v-7.204h-.942l-.915 3.048h-2.91v-7.205h5.82l1.856 4.406h.942v-5.513l-2.41.027H345.38v.97l2.134.554v15.378l-2.134.527v.97h15.129l1.136-6.401h-.97l-3.075 5.32h-3.381c-.86-.028-1.468-.277-1.94-.803v-6.955h2.91zm.25-15.129l-2.105 4.046h1.413l4.516-3.687v-.359h-3.823zm36.327 22.97v.998h6.317v-.998l-2.272-.553 4.129-5.931h.055l3.602 5.985-2.105.499v.998h9.67v-.998l-1.995-.499-5.542-8.728 4.849-6.623 2.023-.581v-.97h-6.262v.997l2.438.61-3.768 5.348h-.056l-3.27-5.459 2.134-.526v-.97h-9.615v.97l1.94.526 5.209 8.257-5.375 7.178-2.106.47zm49.377.998h9.033v-.97l-2.133-.527V87.731l2.133-.526v-.97h-9.033v.97l2.133.526v15.406l-2.133.527v.97zm50.569.415c2.328 0 4.073-.443 6.346-1.33l1.108-5.514h-.888l-3.158 4.878c-.638.47-1.524.83-2.66.83-3.325 0-5.957-3.408-5.957-9.421 0-4.821 2.217-7.731 5.18-7.731 1.469 0 2.578.554 3.63 1.496l2.134 4.24h.86l-.056-5.376c-1.717-.83-3.657-1.412-5.957-1.412-6.29 0-11.361 4.322-11.361 10.003 0 4.738 3.38 9.337 10.779 9.337zm49.045-1.108c-3.076 0-5.293-4.073-5.293-9.2 0-5.07 1.69-7.897 4.434-7.897 3.242 0 5.292 4.378 5.292 9.172 0 5.015-1.663 7.925-4.433 7.925zm-.388-18.232c-5.293 0-10.197 4.072-10.197 9.781 0 5.957 4.683 9.587 10.086 9.587 5.237 0 10.253-3.852 10.253-9.92 0-5.736-4.572-9.448-10.142-9.448z" id="Fill-1"/><path d="M705.357 37.227c.197 18.801-3.642 33.763-17.423 33.863-13.88.196-18.014-16.439-18.31-33.37-.295-17.62 3.052-33.47 17.326-33.667 14.47-.196 18.112 16.341 18.407 33.174m20.574.197c0-22.247-19.294-37.21-38.489-37.21-19.196 0-38.49 14.963-38.49 37.21s19.294 37.21 38.49 37.21c19.195 0 38.49-14.963 38.49-37.21m-82.282-.11c0-20.117-16.423-34.502-43.178-34.502h-38.501v4.434l8.375 1.946v59.055l-8.375 1.947v4.433h33.498c34.586 0 48.181-19.576 48.181-37.313zm-24.145 4.002c0 18.277-9.135 28.878-18.053 28.878-4.242 0-7.396-1.623-9.137-3.245V6.272c15.988.974 27.19 13.521 27.19 35.044zm-67.293 33.311l5.438-29.743h-4.024l-14.031 25.201h-7.72c-3.808 0-6.636-.973-8.702-3.136V9.192l8.374-1.946V2.812h-39.043v4.434l8.374 1.946v59.055l-8.374 1.947v4.433h59.708zm-106.04 0h40.133v-4.433l-6.308-1.298L452.806 0l-5.981 1.189-4.785.974-27.191 66.192-6.634 1.839v4.433h24.907v-4.433l-11.746-2.273 5.686-14.918c1.169-.593 2.986-1.469 3.807-1.629h.431c.961.448 2.661 3.965 11.878 3.965 2.603 0 4.548-.881 6.021-2.163l5.456 15.503-8.483 1.515v4.433zm.327-28.986h-3.236a10.08 10.08 0 0 1-2.943-1.17c-3.597-2.113-6.89-2.294-9.256-1.978l7.495-19.564 7.94 22.712zm-42.961 28.99l4.5-12.547-1.205-2.249-7.953 5.22h-1.351l-14.98-25.361v-.541c10.768-4.11 15.443-10.709 15.443-18.064 0-9.841-9.244-18.277-36.217-18.277h-33.062v4.434l8.375 1.946v59.055l-8.375 1.947v4.433h38.065v-4.433l-7.722-1.947V43.479h1.849l18.381 31.148h6.983v.004h17.269zm-26.319-50.512c0 6.488-4.241 12.546-10.441 14.384h-7.722V7.246c9.898.757 18.163 6.706 18.163 16.873zm-92.935 42.836V43.722h13.869s.482-10.056 4.499-12.546l-1.205-2.249s-4.498 1.044-7.952 5.221h-9.211V7.36h21.534l7.832 18.062h4.132V2.817h-64.169v4.435l8.375 1.947v59.053l-8.375 1.948v4.433h62.428l4.026-26.605h-4.134L303.317 70.2h-10.44c-3.808 0-6.527-1.082-8.593-3.245zm-78.25 7.672h39.262v-4.433l-8.375-1.947V9.192l8.375-1.946V2.812h-39.044v4.434l8.373 1.946v25.742h-27.516V9.192l8.375-1.946V2.812h-39.045v4.434l8.375 1.946v59.055l-8.375 1.947v4.433h39.045v-4.433l-8.375-1.947V40.991h27.516v27.256l-8.591 1.947v4.433zm-73.703 0l5.439-29.743h-4.025l-14.03 25.201h-7.721c-3.807 0-6.635-.973-8.7-3.136V9.192l8.374-1.946V2.812H72.622v4.434l8.375 1.946v59.055l-8.375 1.947v4.433h59.709zm-101.66-7.672V43.722h13.87s.481-10.056 4.498-12.546l-1.204-2.249s-4.498 1.044-7.953 5.221h-9.211V7.36h21.534l7.831 18.062h4.134V2.817H0v4.435l8.375 1.947v59.053L0 70.2v4.433h62.428l4.025-26.605H62.32L49.704 70.2H39.263c-3.807 0-6.526-1.082-8.592-3.245z" id="Fill-3"/></g></g></svg>